<?xml version="1.0" standalone="no"?>
<!DOCTYPE svg PUBLIC "-//W3C//DTD SVG 20010904//EN"
 "http://www.w3.org/TR/2001/REC-SVG-20010904/DTD/svg10.dtd">
<svg version="1.0" xmlns="http://www.w3.org/2000/svg"
 width="798.000000pt" height="798.000000pt" viewBox="0 0 798.000000 798.000000"
 preserveAspectRatio="xMidYMid meet">

<g transform="translate(0.000000,798.000000) scale(0.100000,-0.100000)"
fill="#ffffff" stroke="none">
<path d="M3669 7404 c-8 -10 -24 -14 -46 -12 -18 2 -33 0 -33 -4 0 -11 -48
-10 -55 1 -3 5 3 12 12 15 10 3 -2 4 -26 1 -24 -2 -47 -9 -51 -16 -5 -6 -15
-9 -23 -6 -10 4 -14 1 -11 -6 6 -17 -52 -51 -62 -36 -4 7 -15 2 -31 -15 -13
-14 -32 -26 -41 -26 -9 0 -30 -9 -47 -20 -46 -32 -96 -51 -145 -57 -71 -7
-150 -68 -190 -143 -10 -19 -47 -60 -81 -90 -88 -75 -111 -100 -105 -115 3 -8
-2 -19 -10 -25 -8 -7 -14 -18 -14 -25 0 -7 -7 -18 -15 -25 -8 -7 -14 -18 -13
-24 1 -6 -3 -21 -10 -34 -12 -20 -33 -119 -50 -227 -13 -86 -7 -239 10 -271 9
-16 19 -50 22 -75 10 -82 55 -263 92 -364 45 -127 53 -172 58 -336 3 -74 6
-145 9 -159 6 -37 28 -104 38 -114 5 -6 9 -25 9 -42 0 -18 5 -45 11 -61 10
-25 14 -42 22 -78 2 -5 6 -15 10 -21 4 -7 7 -23 6 -35 0 -13 6 -42 15 -64 8
-22 15 -50 16 -62 0 -12 4 -24 9 -27 5 -3 12 -22 15 -41 4 -19 11 -35 16 -35
6 0 10 -8 10 -18 0 -19 25 -77 44 -101 5 -7 11 -18 12 -25 6 -35 86 -167 142
-235 18 -22 33 -44 34 -48 0 -4 16 -26 34 -47 19 -22 34 -45 34 -51 0 -21 107
-125 129 -125 12 0 21 -4 21 -9 0 -5 9 -13 21 -16 11 -4 18 -9 15 -13 -6 -6 5
-14 69 -52 28 -17 36 -19 26 -7 -11 14 -11 17 0 17 20 0 42 -16 36 -26 -5 -8
15 -12 68 -14 11 -1 22 -6 26 -12 6 -10 50 -17 139 -21 42 -2 105 -26 71 -27
-11 0 -12 -3 -4 -11 18 -18 115 -15 157 5 22 10 49 15 64 12 15 -3 21 -3 14 0
-21 10 7 34 37 33 25 -1 25 -2 -4 -9 -24 -5 -26 -8 -13 -14 20 -9 61 11 52 26
-4 6 1 8 15 3 14 -4 23 -2 27 9 3 8 12 12 20 9 8 -3 24 3 36 13 12 11 18 13
13 5 -5 -10 -4 -12 3 -7 7 4 12 15 12 24 0 15 2 15 10 2 8 -12 10 -11 10 7 0
12 5 25 12 29 8 5 9 2 5 -9 -3 -10 -2 -17 3 -17 6 0 10 5 10 10 0 6 9 10 20
10 11 0 20 5 20 11 0 7 8 18 18 26 9 8 11 11 4 8 -11 -6 -11 -3 -1 13 7 11 19
18 26 15 8 -3 13 0 11 7 -2 7 5 14 16 15 10 2 27 14 39 27 51 57 61 71 50 64
-7 -4 -13 -2 -13 3 0 6 7 11 16 11 14 0 15 2 3 17 -9 10 -9 14 -2 10 7 -5 16
1 23 13 6 11 17 20 25 20 20 0 19 19 0 26 -12 5 -13 9 -4 21 10 11 14 11 21 1
5 -8 6 0 4 20 -3 27 1 35 19 42 17 7 24 20 30 56 3 25 15 56 26 67 21 23 24
37 8 37 -5 0 -7 -4 -4 -10 3 -5 1 -10 -4 -10 -16 0 -13 20 3 26 14 5 32 66 27
93 -1 7 2 10 7 7 5 -3 15 27 22 67 7 40 17 76 22 81 4 6 8 19 8 30 0 12 7 39
14 61 8 22 10 41 5 43 -5 2 -9 8 -9 13 0 6 4 8 8 5 15 -9 11 98 -3 114 -18 20
-19 31 -3 42 9 7 10 11 2 14 -7 3 -9 14 -6 26 3 14 1 19 -6 14 -8 -5 -12 0
-12 13 0 29 19 36 36 15 9 -11 13 -13 9 -6 -3 6 -1 12 5 12 6 0 8 5 6 10 -15
24 -14 58 1 64 12 5 13 10 6 19 -8 9 -8 32 0 79 9 58 14 68 37 78 43 17 53 42
40 100 -11 51 -56 110 -84 110 -20 0 -33 29 -33 71 0 20 -5 46 -11 58 -9 16
-9 19 2 15 9 -3 13 6 12 33 0 31 4 38 20 39 11 1 38 13 59 28 21 14 43 26 49
26 6 0 8 3 4 6 -3 4 -29 -5 -56 -20 -28 -14 -53 -26 -56 -26 -6 0 5 71 13 84
3 5 0 6 -6 2 -7 -4 -12 -2 -12 3 0 6 3 11 8 11 4 0 7 12 7 28 1 15 4 59 8 97
15 137 15 145 -2 156 -13 8 -11 9 7 4 20 -6 21 -4 12 21 -8 19 -7 31 2 42 11
13 11 15 -2 8 -11 -6 -11 -4 1 6 9 7 15 22 13 32 -1 10 -4 40 -5 65 -1 25 -5
51 -8 56 -9 16 -11 37 -12 94 0 29 -4 62 -10 72 -7 14 -6 19 3 19 10 0 10 2
-1 9 -9 6 -11 18 -6 39 4 19 1 40 -6 54 -7 13 -14 32 -16 42 -5 31 -61 110
-89 126 -15 8 -26 20 -26 25 0 6 -6 17 -14 26 -8 9 -11 19 -7 22 3 4 -1 7 -10
7 -8 0 -38 20 -65 45 -74 67 -96 83 -126 91 -17 4 -25 11 -22 20 3 8 2 13 -2
13 -18 -3 -35 2 -28 8 7 7 -86 41 -116 42 -9 1 -18 6 -20 12 -2 6 -26 15 -53
20 -26 5 -56 16 -65 24 -9 8 -26 15 -38 15 -12 0 -22 4 -22 9 0 14 -59 24
-155 27 -49 1 -115 4 -145 7 -30 2 -62 1 -71 -4 -10 -5 -24 -3 -36 6 -11 8
-23 12 -26 8 -4 -3 -9 2 -13 11 -8 20 -18 20 -35 0z m521 -674 c13 -11 28 -20
34 -20 6 0 4 5 -4 10 -12 7 -10 9 7 7 12 0 19 -5 17 -9 -3 -4 2 -8 11 -8 9 0
13 5 9 11 -4 8 0 7 15 -1 17 -9 28 -8 53 4 40 20 48 20 48 -1 0 -16 2 -16 11
-3 7 11 12 12 15 3 3 -7 12 -9 20 -6 8 3 14 2 13 -3 -3 -15 22 -74 32 -74 5 0
9 -4 9 -9 0 -5 5 -22 12 -38 6 -15 11 -31 10 -35 -1 -5 5 -8 13 -8 8 0 15 -3
16 -7 0 -5 2 -16 4 -26 2 -9 -1 -15 -6 -11 -12 7 -11 -3 1 -27 6 -11 7 -19 3
-18 -21 4 -20 -5 3 -50 13 -28 24 -53 23 -58 -4 -21 2 -34 12 -27 8 4 9 0 4
-15 -4 -15 -2 -21 9 -21 8 0 19 -6 23 -14 4 -7 18 -18 31 -25 16 -8 22 -21 22
-43 0 -17 9 -61 19 -97 11 -36 34 -122 51 -191 18 -68 40 -140 50 -160 9 -19
21 -53 25 -75 10 -46 9 -44 19 -67 5 -10 6 -24 3 -32 -3 -7 0 -19 6 -25 8 -8
8 -11 -1 -11 -9 0 -10 -5 -3 -19 6 -10 7 -35 4 -56 -5 -30 -2 -41 12 -51 11
-8 14 -14 8 -14 -7 0 -15 5 -19 12 -9 15 -35 -19 -28 -37 3 -7 1 -16 -5 -20
-6 -3 -11 -16 -11 -28 0 -16 3 -19 9 -8 16 25 29 3 21 -36 -5 -20 -7 -40 -4
-45 3 -4 -2 -5 -10 -2 -9 3 -16 13 -16 21 0 13 -3 13 -15 3 -8 -7 -13 -16 -10
-20 3 -5 1 -12 -5 -15 -6 -4 -8 -15 -5 -25 3 -10 1 -21 -5 -25 -14 -9 -13 -42
3 -48 9 -4 9 -8 -1 -15 -8 -5 -14 -28 -14 -56 0 -30 -3 -44 -10 -40 -6 4 -8 2
-4 -4 3 -6 2 -13 -4 -17 -5 -3 -10 -19 -10 -36 0 -30 -14 -39 -24 -16 -4 6 -4
2 -2 -10 3 -20 1 -21 -15 -12 -11 6 -17 15 -13 22 4 7 3 8 -2 4 -4 -4 -9 -20
-10 -35 0 -14 -6 -28 -13 -30 -9 -3 -9 -7 0 -19 10 -11 10 -16 0 -22 -10 -6
-7 -14 10 -30 18 -16 20 -24 11 -33 -9 -9 -15 -9 -24 1 -10 11 -10 13 0 7 17
-10 15 9 -3 24 -8 7 -21 10 -29 7 -11 -4 -13 -1 -9 11 3 9 3 14 -2 10 -4 -4
-15 -2 -24 5 -14 10 -14 10 -4 -3 15 -20 -5 -103 -23 -96 -7 3 -18 -2 -25 -10
-7 -9 -21 -13 -31 -11 -10 3 -21 1 -24 -4 -3 -5 -10 -7 -15 -3 -6 3 -19 -2
-30 -12 -21 -18 -21 -18 -18 36 2 45 -3 66 -30 115 -17 33 -29 49 -25 35 6
-24 6 -24 -12 -9 -35 31 -79 47 -121 46 -22 -1 -39 1 -36 6 2 4 -1 7 -6 7 -6
0 -11 -4 -11 -10 0 -5 -5 -10 -12 -10 -6 0 -8 3 -5 7 15 14 -16 32 -46 27 -22
-4 -28 -3 -18 4 16 11 7 32 -14 32 -7 0 -17 9 -20 20 -3 11 -13 20 -22 20 -10
0 -13 6 -9 18 6 16 5 16 -8 0 -7 -10 -16 -18 -20 -18 -4 0 -14 -7 -22 -15 -16
-15 -59 -12 -78 6 -14 13 -2 21 51 34 55 14 69 40 26 48 -51 10 -153 -51 -153
-92 0 -26 -5 -26 -41 0 -25 17 -32 19 -45 8 -14 -12 -13 -16 12 -37 l29 -23
-47 4 c-27 3 -48 1 -48 -4 0 -5 -11 -7 -25 -5 -13 3 -27 0 -30 -5 -11 -16 -25
-10 -18 9 5 14 3 15 -7 5 -11 -10 -11 -15 0 -28 16 -19 -2 -45 -31 -45 -11 0
-19 -4 -19 -10 0 -5 5 -10 11 -10 5 0 7 -5 4 -10 -4 -6 -11 -8 -16 -5 -5 4 -9
0 -9 -7 0 -10 -2 -10 -9 0 -6 10 -10 7 -15 -13 -4 -15 -5 -30 -1 -33 3 -3 5 1
5 8 0 7 3 11 6 7 7 -6 -33 -62 -44 -62 -4 0 -6 -3 -4 -7 1 -5 -5 -8 -13 -8
-10 0 -15 10 -15 27 0 26 -1 26 -15 7 -11 -15 -16 -16 -23 -6 -18 27 -60 -76
-46 -113 5 -13 9 -13 22 -3 13 12 14 11 2 -9 -8 -12 -18 -19 -22 -17 -4 3 -8
-1 -8 -9 0 -8 10 -19 23 -26 18 -9 18 -11 2 -6 -17 4 -18 3 -5 -7 8 -7 16 -25
16 -41 1 -20 -2 -25 -11 -17 -9 8 -14 5 -18 -11 -4 -13 -10 -18 -18 -13 -9 5
-10 2 -6 -9 3 -10 3 -17 -2 -17 -5 0 -12 15 -16 33 -4 17 -9 27 -11 21 -3 -6
-17 -9 -31 -6 -22 4 -25 2 -19 -14 6 -17 5 -17 -16 2 -13 12 -32 26 -43 32
-11 6 -14 12 -7 12 20 0 14 17 -9 23 -16 4 -19 2 -15 -11 5 -15 4 -14 -8 1 -8
10 -11 28 -8 40 5 19 3 20 -10 9 -12 -10 -18 -9 -28 3 -7 8 -15 13 -19 10 -4
-2 -5 10 -3 27 3 21 1 29 -7 24 -10 -7 -16 11 -12 42 1 7 -5 15 -14 18 -8 3
-15 13 -15 22 0 26 -43 122 -52 116 -4 -3 -8 10 -8 29 0 19 -7 40 -15 47 -8 7
-15 20 -15 30 0 19 -29 91 -30 75 0 -5 -5 -2 -11 8 -5 9 -7 22 -3 29 4 7 3 8
-4 4 -8 -4 -10 5 -8 29 1 20 -4 44 -11 55 -7 10 -13 23 -12 27 1 4 -3 21 -10
38 -9 22 -9 31 0 34 8 2 8 5 -1 11 -9 5 -11 48 -9 156 2 152 2 258 0 374 -1
36 1 92 5 125 8 71 8 61 1 253 -5 138 -4 158 14 200 11 26 28 53 37 60 14 10
14 14 3 21 -10 6 -10 13 -2 28 5 11 7 23 4 27 -3 3 -1 6 5 6 15 0 44 69 35 84
-4 6 5 3 20 -7 35 -22 128 -22 120 1 -5 12 -2 12 18 2 13 -7 27 -18 31 -24 5
-7 8 -5 8 5 0 12 7 15 28 12 15 -3 35 -5 45 -6 9 -1 17 -6 17 -12 0 -5 5 -3
10 5 7 12 12 12 22 2 15 -15 39 -16 35 0 -1 6 6 14 17 16 13 3 16 0 11 -10 -6
-10 -5 -11 6 0 19 18 52 15 77 -8 l22 -21 0 21 c0 18 3 19 20 10 12 -7 18 -16
13 -23 -4 -7 1 -6 11 2 9 8 15 20 12 27 -3 7 0 16 6 20 7 4 8 3 4 -4 -4 -7 -3
-12 3 -12 5 0 17 -7 26 -17 13 -12 19 -13 24 -4 6 10 12 9 25 -4 9 -9 16 -21
16 -26 0 -5 5 -9 11 -9 6 0 9 6 6 14 -4 10 8 16 49 21 33 4 52 10 48 17 -4 6
1 8 16 3 17 -5 21 -4 15 5 -5 8 -4 11 2 7 6 -4 23 -1 38 7 15 8 33 12 40 10 7
-3 16 -1 19 4 3 5 32 8 65 6 45 -3 63 -1 75 12 12 11 16 12 17 2 0 -10 2 -10
6 -1 3 9 10 10 23 5 13 -7 21 -5 30 5 11 13 10 14 -4 9 -9 -3 -16 -1 -16 4 0
6 16 14 35 18 19 3 35 10 35 16 0 5 4 7 9 4 7 -5 43 4 57 13 1 1 11 -8 24 -19z
m-1155 -100 c3 -5 2 -10 -4 -10 -5 0 -13 5 -16 10 -3 6 -2 10 4 10 5 0 13 -4
16 -10z m1858 -1138 l-6 -25 -13 24 c-8 15 -9 28 -3 34 5 5 9 18 10 30 0 14 3
12 10 -10 4 -16 6 -40 2 -53z m-44 -109 c0 -11 -3 -13 -6 -5 -2 6 -9 10 -13 7
-5 -3 -11 -1 -15 5 -3 5 3 10 14 10 14 0 21 -6 20 -17z m12 -50 c-12 -20 -14
-14 -5 12 4 9 9 14 11 11 3 -2 0 -13 -6 -23z m-14 -75 c-3 -8 -6 -5 -6 6 -1
11 2 17 5 13 3 -3 4 -12 1 -19z m-63 -134 c3 -8 2 -12 -4 -9 -6 3 -10 10 -10
16 0 14 7 11 14 -7z m-994 -144 c0 -5 -8 -10 -17 -10 -15 0 -16 2 -3 10 19 12
20 12 20 0z m995 -10 c3 -5 1 -10 -4 -10 -6 0 -11 5 -11 10 0 6 2 10 4 10 3 0
8 -4 11 -10z m33 -50 c13 0 13 -2 -3 -13 -10 -8 -15 -19 -11 -25 4 -7 1 -12
-8 -12 -9 0 -19 0 -23 0 -5 0 -9 9 -9 20 -1 15 2 17 11 10 12 -10 25 -4 25 12
0 5 -4 6 -10 3 -11 -7 -14 8 -3 19 4 4 9 2 11 -3 2 -6 11 -11 20 -11z m-109
-82 c-5 -10 -14 -18 -20 -18 -6 0 -7 -5 -4 -10 4 -6 11 -7 17 -4 6 4 5 -3 -2
-16 -12 -22 -13 -21 -31 20 -22 49 -24 71 -6 89 18 18 60 -35 46 -61z m56 -1
c1 -32 -11 -26 -17 8 -4 16 -1 24 6 22 6 -2 11 -15 11 -30z m-895 -48 c-9 -9
-15 -9 -24 0 -9 9 -7 12 12 12 19 0 21 -3 12 -12z"/>
</g>
</svg>
