<svg width="180" height="48" viewBox="0 0 180 48" fill="none" xmlns="http://www.w3.org/2000/svg">
<path d="M19.5506 22.272L27.8306 17.448V17.256L19.5506 12.432V10.416L29.6306 16.392V18.312L19.5506 24.288V22.272Z" fill="#34B1FF"/>
<path d="M5.16 18.312V16.392L15.24 10.416V12.432L6.96 17.256V17.448L15.24 22.272V24.288L5.16 18.312Z" fill="#34B1FF"/>
<path d="M18.512 34.712V33.544H28.72V34.712H18.512Z" fill="#72FFA3"/>
<path d="M171.231 25.048C170.079 25.048 169.111 24.832 168.327 24.4C167.559 23.952 166.895 23.36 166.335 22.624L167.703 21.52C168.183 22.128 168.719 22.6 169.311 22.936C169.903 23.256 170.591 23.416 171.375 23.416C172.191 23.416 172.823 23.24 173.271 22.888C173.735 22.536 173.967 22.04 173.967 21.4C173.967 20.92 173.807 20.512 173.487 20.176C173.183 19.824 172.623 19.584 171.807 19.456L170.823 19.312C170.247 19.232 169.719 19.112 169.239 18.952C168.759 18.776 168.335 18.552 167.967 18.28C167.615 17.992 167.335 17.64 167.127 17.224C166.935 16.808 166.839 16.312 166.839 15.736C166.839 15.128 166.951 14.6 167.175 14.152C167.399 13.688 167.703 13.304 168.087 13C168.487 12.696 168.959 12.472 169.503 12.328C170.047 12.168 170.631 12.088 171.255 12.088C172.263 12.088 173.103 12.264 173.775 12.616C174.463 12.968 175.063 13.456 175.575 14.08L174.303 15.232C174.031 14.848 173.631 14.504 173.103 14.2C172.575 13.88 171.911 13.72 171.111 13.72C170.311 13.72 169.703 13.896 169.287 14.248C168.887 14.584 168.687 15.048 168.687 15.64C168.687 16.248 168.887 16.688 169.287 16.96C169.703 17.232 170.295 17.432 171.063 17.56L172.023 17.704C173.399 17.912 174.375 18.312 174.951 18.904C175.527 19.48 175.815 20.24 175.815 21.184C175.815 22.384 175.407 23.328 174.591 24.016C173.775 24.704 172.655 25.048 171.231 25.048Z" fill="white"/>
<path d="M153.871 24.76V12.376H155.791V14.392H155.887C156.191 13.688 156.615 13.128 157.159 12.712C157.719 12.296 158.463 12.088 159.391 12.088C160.671 12.088 161.679 12.504 162.415 13.336C163.167 14.152 163.543 15.312 163.543 16.816V24.76H161.623V17.152C161.623 14.928 160.687 13.816 158.815 13.816C158.431 13.816 158.055 13.864 157.687 13.96C157.335 14.056 157.015 14.2 156.727 14.392C156.439 14.584 156.207 14.832 156.031 15.136C155.871 15.424 155.791 15.768 155.791 16.168V24.76H153.871Z" fill="white"/>
<path d="M145.121 25.048C144.289 25.048 143.529 24.896 142.841 24.592C142.153 24.288 141.561 23.856 141.065 23.296C140.585 22.72 140.209 22.04 139.937 21.256C139.665 20.456 139.529 19.56 139.529 18.568C139.529 17.592 139.665 16.704 139.937 15.904C140.209 15.104 140.585 14.424 141.065 13.864C141.561 13.288 142.153 12.848 142.841 12.544C143.529 12.24 144.289 12.088 145.121 12.088C145.953 12.088 146.705 12.24 147.377 12.544C148.065 12.848 148.657 13.288 149.153 13.864C149.649 14.424 150.033 15.104 150.305 15.904C150.577 16.704 150.713 17.592 150.713 18.568C150.713 19.56 150.577 20.456 150.305 21.256C150.033 22.04 149.649 22.72 149.153 23.296C148.657 23.856 148.065 24.288 147.377 24.592C146.705 24.896 145.953 25.048 145.121 25.048ZM145.121 23.344C146.161 23.344 147.009 23.024 147.665 22.384C148.321 21.744 148.649 20.768 148.649 19.456V17.68C148.649 16.368 148.321 15.392 147.665 14.752C147.009 14.112 146.161 13.792 145.121 13.792C144.081 13.792 143.233 14.112 142.577 14.752C141.921 15.392 141.593 16.368 141.593 17.68V19.456C141.593 20.768 141.921 21.744 142.577 22.384C143.233 23.024 144.081 23.344 145.121 23.344Z" fill="white"/>
<path d="M135.401 9.472C134.985 9.472 134.681 9.376 134.489 9.184C134.313 8.976 134.225 8.712 134.225 8.392V8.08C134.225 7.76 134.313 7.504 134.489 7.312C134.681 7.104 134.985 7 135.401 7C135.817 7 136.113 7.104 136.289 7.312C136.481 7.504 136.577 7.76 136.577 8.08V8.392C136.577 8.712 136.481 8.976 136.289 9.184C136.113 9.376 135.817 9.472 135.401 9.472ZM134.441 12.376H136.361V24.76H134.441V12.376Z" fill="white"/>
<path d="M128.763 24.76C128.091 24.76 127.579 24.576 127.227 24.208C126.891 23.824 126.723 23.328 126.723 22.72V14.056H124.683V12.376H125.835C126.251 12.376 126.531 12.296 126.675 12.136C126.835 11.96 126.915 11.664 126.915 11.248V8.944H128.643V12.376H131.355V14.056H128.643V23.08H131.163V24.76H128.763Z" fill="white"/>
<path d="M122.207 24.76C121.487 24.76 120.967 24.568 120.647 24.184C120.343 23.8 120.151 23.32 120.071 22.744H119.951C119.679 23.512 119.231 24.088 118.607 24.472C117.983 24.856 117.239 25.048 116.375 25.048C115.063 25.048 114.039 24.712 113.303 24.04C112.583 23.368 112.223 22.456 112.223 21.304C112.223 20.136 112.647 19.24 113.495 18.616C114.359 17.992 115.695 17.68 117.503 17.68H119.951V16.456C119.951 15.576 119.711 14.904 119.231 14.44C118.751 13.976 118.015 13.744 117.023 13.744C116.271 13.744 115.639 13.912 115.127 14.248C114.631 14.584 114.215 15.032 113.879 15.592L112.727 14.512C113.063 13.84 113.599 13.272 114.335 12.808C115.071 12.328 115.999 12.088 117.119 12.088C118.623 12.088 119.791 12.456 120.623 13.192C121.455 13.928 121.871 14.952 121.871 16.264V23.08H123.287V24.76H122.207ZM116.687 23.416C117.167 23.416 117.607 23.36 118.007 23.248C118.407 23.136 118.751 22.976 119.039 22.768C119.327 22.56 119.551 22.32 119.711 22.048C119.871 21.776 119.951 21.48 119.951 21.16V19.12H117.407C116.303 19.12 115.495 19.28 114.983 19.6C114.487 19.92 114.239 20.384 114.239 20.992V21.496C114.239 22.104 114.455 22.576 114.887 22.912C115.335 23.248 115.935 23.416 116.687 23.416Z" fill="white"/>
<path d="M92.2536 24.76V12.376H94.1736V14.392H94.2696C94.4136 14.072 94.5736 13.776 94.7496 13.504C94.9416 13.216 95.1656 12.968 95.4216 12.76C95.6936 12.552 96.0056 12.392 96.3576 12.28C96.7096 12.152 97.1256 12.088 97.6056 12.088C98.4216 12.088 99.1736 12.288 99.8616 12.688C100.55 13.072 101.062 13.712 101.398 14.608H101.446C101.67 13.936 102.086 13.352 102.694 12.856C103.318 12.344 104.158 12.088 105.214 12.088C106.478 12.088 107.462 12.504 108.166 13.336C108.886 14.152 109.246 15.312 109.246 16.816V24.76H107.326V17.152C107.326 16.048 107.11 15.216 106.678 14.656C106.246 14.096 105.558 13.816 104.614 13.816C104.23 13.816 103.862 13.864 103.51 13.96C103.174 14.056 102.87 14.2 102.598 14.392C102.326 14.584 102.11 14.832 101.95 15.136C101.79 15.424 101.71 15.768 101.71 16.168V24.76H99.7896V17.152C99.7896 16.048 99.5736 15.216 99.1416 14.656C98.7096 14.096 98.0376 13.816 97.1256 13.816C96.7416 13.816 96.3736 13.864 96.0216 13.96C95.6696 14.056 95.3576 14.2 95.0856 14.392C94.8136 14.584 94.5896 14.832 94.4136 15.136C94.2536 15.424 94.1736 15.768 94.1736 16.168V24.76H92.2536Z" fill="white"/>
<path d="M83.5039 25.048C82.6719 25.048 81.9119 24.896 81.2239 24.592C80.5359 24.288 79.9439 23.856 79.4479 23.296C78.9679 22.72 78.5919 22.04 78.3199 21.256C78.0479 20.456 77.9119 19.56 77.9119 18.568C77.9119 17.592 78.0479 16.704 78.3199 15.904C78.5919 15.104 78.9679 14.424 79.4479 13.864C79.9439 13.288 80.5359 12.848 81.2239 12.544C81.9119 12.24 82.6719 12.088 83.5039 12.088C84.3359 12.088 85.0879 12.24 85.7599 12.544C86.4479 12.848 87.0399 13.288 87.5359 13.864C88.0319 14.424 88.4159 15.104 88.6879 15.904C88.9599 16.704 89.0959 17.592 89.0959 18.568C89.0959 19.56 88.9599 20.456 88.6879 21.256C88.4159 22.04 88.0319 22.72 87.5359 23.296C87.0399 23.856 86.4479 24.288 85.7599 24.592C85.0879 24.896 84.3359 25.048 83.5039 25.048ZM83.5039 23.344C84.5439 23.344 85.3919 23.024 86.0479 22.384C86.7039 21.744 87.0319 20.768 87.0319 19.456V17.68C87.0319 16.368 86.7039 15.392 86.0479 14.752C85.3919 14.112 84.5439 13.792 83.5039 13.792C82.4639 13.792 81.6159 14.112 80.9599 14.752C80.3039 15.392 79.9759 16.368 79.9759 17.68V19.456C79.9759 20.768 80.3039 21.744 80.9599 22.384C81.6159 23.024 82.4639 23.344 83.5039 23.344Z" fill="white"/>
<path d="M73.2396 24.76C72.5676 24.76 72.0556 24.576 71.7036 24.208C71.3676 23.824 71.1996 23.328 71.1996 22.72V14.056H69.1596V12.376H70.3116C70.7276 12.376 71.0076 12.296 71.1516 12.136C71.3116 11.96 71.3916 11.664 71.3916 11.248V8.944H73.1196V12.376H75.8316V14.056H73.1196V23.08H75.6396V24.76H73.2396Z" fill="white"/>
<path d="M64.495 22.744H64.399C64.271 23.032 64.111 23.32 63.919 23.608C63.743 23.88 63.519 24.128 63.247 24.352C62.975 24.56 62.647 24.728 62.263 24.856C61.879 24.984 61.431 25.048 60.919 25.048C59.639 25.048 58.623 24.64 57.871 23.824C57.119 22.992 56.743 21.824 56.743 20.32V12.376H58.663V19.984C58.663 22.208 59.607 23.32 61.495 23.32C61.879 23.32 62.247 23.272 62.599 23.176C62.967 23.08 63.287 22.936 63.559 22.744C63.847 22.552 64.071 22.312 64.231 22.024C64.407 21.72 64.495 21.36 64.495 20.944V12.376H66.415V24.76H64.495V22.744Z" fill="white"/>
<path d="M52.168 24.76L50.488 19.816H43.72L42.04 24.76H40L45.856 8.008H48.424L54.28 24.76H52.168ZM47.152 9.88H47.032L44.2 18.04H49.984L47.152 9.88Z" fill="white"/>
<path d="M88.5611 44H87.2811V32.832H91.3931C93.2385 32.832 94.1611 33.8933 94.1611 36.016C94.1611 37.808 93.4998 38.8427 92.1771 39.12L94.4331 44H92.9931L90.8971 39.2H88.5611V44ZM91.3611 38.112C92.3105 38.112 92.7851 37.6 92.7851 36.576V35.488C92.7851 34.464 92.3105 33.952 91.3611 33.952H88.5611V38.112H91.3611Z" fill="#72FFA3"/>
<path d="M81.0042 44V42.944H82.4122V33.888H81.0042V32.832H85.1002V33.888H83.6922V42.944H85.1002V44H81.0042Z" fill="#72FFA3"/>
<path d="M73.0624 44V32.832H79.2384V33.952H74.3424V37.792H78.9344V38.912H74.3424V42.88H79.2384V44H73.0624Z" fill="#72FFA3"/>
<path d="M69.1669 36.336L69.2789 34.416H69.1189L68.2869 36.336L65.8869 41.264L63.4869 36.336L62.6549 34.448H62.4949L62.6069 36.336V44H61.3589V32.832H63.0549L65.0709 37.168L65.8229 39.232H65.9509L66.7029 37.168L68.7189 32.832H70.4149V44H69.1669V36.336Z" fill="#72FFA3"/>
<path d="M51.7414 44V39.584L48.2854 32.832H49.7414L52.3174 38.144H52.4774L55.0534 32.832H56.4774L53.0214 39.584V44H51.7414Z" fill="#72FFA3"/>
<path d="M40.328 32.832H44.552C45.3947 32.832 46.04 33.072 46.488 33.552C46.9467 34.0213 47.176 34.7413 47.176 35.712C47.176 36.16 47.1227 36.5333 47.016 36.832C46.9093 37.12 46.7707 37.3547 46.6 37.536C46.44 37.7067 46.2587 37.8347 46.056 37.92C45.8533 38.0053 45.656 38.0533 45.464 38.064V38.224C45.656 38.224 45.8693 38.2667 46.104 38.352C46.3493 38.4267 46.5733 38.5653 46.776 38.768C46.9893 38.96 47.1653 39.2213 47.304 39.552C47.4533 39.872 47.528 40.2773 47.528 40.768C47.528 41.792 47.2933 42.5867 46.824 43.152C46.3547 43.7173 45.7413 44 44.984 44H40.328V32.832ZM41.608 42.88H44.6C45.112 42.88 45.496 42.7467 45.752 42.48C46.0187 42.2027 46.152 41.776 46.152 41.2V40.464C46.152 39.888 46.0187 39.4667 45.752 39.2C45.496 38.9227 45.112 38.784 44.6 38.784H41.608V42.88ZM41.608 37.664H44.392C44.8507 37.664 45.2027 37.5467 45.448 37.312C45.6933 37.0667 45.816 36.688 45.816 36.176V35.44C45.816 34.928 45.6933 34.5547 45.448 34.32C45.2027 34.0747 44.8507 33.952 44.392 33.952H41.608V37.664Z" fill="#72FFA3"/>
</svg>
